<!DOCTYPE svg PUBLIC "-//W3C//DTD SVG 1.1//EN" "http://www.w3.org/Graphics/SVG/1.1/DTD/svg11.dtd">
<!-- Uploaded to: SVG Repo, www.svgrepo.com, Transformed by: SVG Repo Mixer Tools -->
<svg height="800px" width="800px" version="1.1" id="Layer_1" xmlns="http://www.w3.org/2000/svg" xmlns:xlink="http://www.w3.org/1999/xlink" viewBox="0 0 511.998 511.998" xml:space="preserve" fill="#000000">
<g id="SVGRepo_bgCarrier" stroke-width="0"/>
<g id="SVGRepo_tracerCarrier" stroke-linecap="round" stroke-linejoin="round"/>
<g id="SVGRepo_iconCarrier"> <path style="fill:#8CC1EA;" d="M379.931,390.581h-29.75V167.863h77.591c42,0,76.041,34.041,76.041,76.03v146.688h-36.541"/> <polyline style="fill:#F2CA7F;" points="160.215,390.581 127.462,390.581 127.462,144.936 350.18,144.936 350.18,167.863 350.18,390.581 247.555,390.581 "/> <circle style="fill:#898686;" cx="203.885" cy="390.586" r="43.67"/> <circle style="fill:#EDEBEB;" cx="203.885" cy="390.586" r="12.922"/> <circle style="fill:#898686;" cx="423.601" cy="390.586" r="43.67"/> <path style="fill:#CEE5F2;" d="M471.059,277.585v-33.692c0-23.862-19.419-43.277-43.288-43.277h-44.838v76.969H471.059z"/> <circle style="fill:#EDEBEB;" cx="423.601" cy="390.586" r="12.922"/> <circle style="fill:#FFFFFF;" cx="140.782" cy="157.823" r="78.988"/> <path d="M30.023,224.047h25.653c4.523,0,8.188-3.666,8.188-8.188s-3.665-8.188-8.188-8.188H30.023c-4.523,0-8.188,3.666-8.188,8.188 S25.5,224.047,30.023,224.047z"/> <path d="M99.346,300.464H40.941c-4.523,0-8.188,3.666-8.188,8.188s3.665,8.188,8.188,8.188h58.406c4.523,0,8.188-3.666,8.188-8.188 S103.87,300.464,99.346,300.464z"/> <path d="M8.188,267.714h69.323c4.523,0,8.188-3.666,8.188-8.188c0-4.522-3.665-8.188-8.188-8.188H8.188 c-4.523,0-8.188,3.666-8.188,8.188C0,264.048,3.665,267.714,8.188,267.714z"/> <path d="M77.511,365.966h-6.715c-4.523,0-8.188,3.666-8.188,8.188s3.665,8.188,8.188,8.188h6.715c4.523,0,8.188-3.666,8.188-8.188 S82.034,365.966,77.511,365.966z"/> <path d="M43.502,365.966H8.188c-4.523,0-8.188,3.666-8.188,8.188s3.665,8.188,8.188,8.188h35.314c4.523,0,8.188-3.666,8.188-8.188 S48.024,365.966,43.502,365.966z"/> <path d="M427.771,159.128h-69.403v-14.739c0-4.522-3.665-8.188-8.188-8.188H246.016c-4.523,0-8.188,3.666-8.188,8.188 s3.665,8.188,8.188,8.188h95.976v172.495c0,4.522,3.665,8.188,8.188,8.188c4.523,0,8.188-3.666,8.188-8.188V175.504h69.403 c37.414,0,67.851,30.434,67.851,67.842v138.5h-20.818c-3.938-24.717-25.397-43.67-51.205-43.67s-47.268,18.953-51.205,43.67h-14.026 v-29.48c0-4.522-3.665-8.188-8.188-8.188c-4.523,0-8.188,3.666-8.188,8.188v29.48h-86.901c-3.938-24.717-25.397-43.67-51.205-43.67 s-47.268,18.953-51.205,43.67H135.65V262.43c0-4.522-3.665-8.188-8.188-8.188s-8.188,3.666-8.188,8.188v127.604 c0,4.522,3.665,8.188,8.188,8.188h25.217c3.938,24.717,25.397,43.67,51.205,43.67s47.268-18.953,51.205-43.67h117.302 c3.938,24.717,25.397,43.67,51.205,43.67s47.268-18.953,51.205-43.67h29.006c4.523,0,8.188-3.666,8.188-8.188V243.346 C512,196.908,474.214,159.128,427.771,159.128z M203.885,425.516c-19.565,0-35.482-15.917-35.482-35.482 c0-19.565,15.917-35.482,35.482-35.482s35.482,15.917,35.482,35.482C239.367,409.599,223.45,425.516,203.885,425.516z M423.6,425.516c-19.561,0-35.474-15.909-35.482-35.468c0-0.004,0.001-0.01,0.001-0.014s-0.001-0.01-0.001-0.014 c0.008-19.559,15.921-35.468,35.482-35.468c19.565,0,35.482,15.917,35.482,35.482C459.082,409.599,443.165,425.516,423.6,425.516z"/> <path d="M479.249,243.346c0-28.378-23.092-51.465-51.476-51.465h-44.838c-4.523,0-8.188,3.666-8.188,8.188v76.969 c0,4.522,3.665,8.188,8.188,8.188h88.128c4.523,0,8.188-3.666,8.188-8.188v-33.692H479.249z M462.872,268.851h-71.751v-60.592h36.65 c19.355,0,35.1,15.741,35.1,35.089v25.503H462.872z"/> <path d="M203.885,368.925c-11.64,0-21.11,9.47-21.11,21.11c0,11.64,9.47,21.11,21.11,21.11s21.11-9.47,21.11-21.11 C224.995,378.395,215.525,368.925,203.885,368.925z M203.885,394.768c-2.61,0-4.734-2.123-4.734-4.734s2.123-4.734,4.734-4.734 c2.61,0,4.734,2.123,4.734,4.734S206.496,394.768,203.885,394.768z"/> <path d="M423.6,368.925c-11.64,0-21.11,9.47-21.11,21.11c0,11.64,9.47,21.11,21.11,21.11s21.11-9.47,21.11-21.11 C444.71,378.395,435.24,368.925,423.6,368.925z M423.6,394.768c-2.61,0-4.734-2.123-4.734-4.734s2.123-4.734,4.734-4.734 s4.734,2.123,4.734,4.734S426.21,394.768,423.6,394.768z"/> <path d="M471.06,307.607c-4.523,0-8.188,3.666-8.188,8.188v20.743c0,4.522,3.665,8.188,8.188,8.188s8.188-3.666,8.188-8.188v-20.743 C479.249,311.273,475.582,307.607,471.06,307.607z"/> <path d="M140.782,244.45c48.067,0,87.172-39.106,87.172-87.172s-39.104-87.172-87.172-87.172c-11.045,0-21.812,2.04-32.003,6.064 c-4.207,1.661-6.269,6.417-4.608,10.623c1.661,4.207,6.418,6.268,10.623,4.608c8.266-3.264,17.01-4.919,25.988-4.919 c39.037,0,70.796,31.759,70.796,70.796s-31.759,70.796-70.796,70.796s-70.796-31.759-70.796-70.796 c0-19.857,8.419-38.925,23.097-52.317c3.342-3.048,3.578-8.226,0.531-11.567c-3.049-3.341-8.229-3.578-11.568-0.531 c-18.072,16.488-28.437,39.966-28.437,64.415C53.61,205.344,92.715,244.45,140.782,244.45z"/> <path d="M140.782,103.503c-4.523,0-8.188,3.666-8.188,8.188v45.586c0,4.522,3.665,8.188,8.188,8.188h20.223 c4.523,0,8.188-3.666,8.188-8.188s-3.665-8.188-8.188-8.188H148.97v-37.398C148.97,107.169,145.305,103.503,140.782,103.503z"/> </g>
</svg>