<?xml version="1.0" encoding="iso-8859-1"?>
<!-- Uploaded to: SVG Repo, www.svgrepo.com, Generator: SVG Repo Mixer Tools -->
<svg height="800px" width="800px" version="1.1" id="Layer_1" xmlns="http://www.w3.org/2000/svg" xmlns:xlink="http://www.w3.org/1999/xlink" 
	 viewBox="0 0 512.003 512.003" xml:space="preserve">
<g>
	<circle style="fill:#898686;" cx="432.509" cy="468.08" r="43.922"/>
	<circle style="fill:#898686;" cx="139.308" cy="468.08" r="43.922"/>
</g>
<g>
	<circle style="fill:#BBBBBD;" cx="139.308" cy="468.08" r="20.864"/>
	<circle style="fill:#BBBBBD;" cx="432.509" cy="468.08" r="20.864"/>
</g>
<polyline style="fill:#F2CA7F;" points="472.198,179.436 472.198,139.382 108.382,139.382 108.382,405.748 472.198,405.748 
	472.198,215.968 "/>
<path style="fill:#9E9A9A;" d="M510.52,415.194H101.578c-28.923,0-52.454-23.531-52.454-52.454V34.745
	c0.001-8.74-7.11-15.85-15.849-15.85H1.483V0h31.792C52.432,0,68.02,15.587,68.02,34.745v327.996
	c0,18.503,15.054,33.559,33.559,33.559H510.52V415.194z"/>
<g>
	<path style="fill:#898686;" d="M222.406,190.81c-36.455,0-66.114,29.658-66.114,66.114v6.928h59.186v67.38
		c0,5.092-4.142,9.233-9.233,9.233c-5.092,0-9.233-4.142-9.233-9.233v-9.881h-13.856v9.881c0,12.731,10.358,23.09,23.09,23.09
		s23.09-10.358,23.09-23.09v-67.38h59.186v-6.928C288.52,220.467,258.862,190.81,222.406,190.81z M170.606,249.994
		c3.399-25.552,25.333-45.329,51.8-45.329s48.402,19.777,51.8,45.329H170.606z"/>
	<path style="fill:#898686;" d="M314.043,190.81v58.247c0,28.047,21.06,51.251,48.195,54.671v36.737h-26.634v13.856h67.124v-13.856
		h-26.634v-36.737c27.133-3.42,48.194-26.624,48.194-54.671V190.81H314.043z M410.432,249.055c0,22.753-18.511,41.266-41.266,41.266
		c-22.755,0-41.267-18.512-41.267-41.266v-44.391h82.532L410.432,249.055L410.432,249.055z"/>
</g>
</svg>