<!DOCTYPE svg PUBLIC "-//W3C//DTD SVG 1.1//EN" "http://www.w3.org/Graphics/SVG/1.1/DTD/svg11.dtd">
<!-- Uploaded to: SVG Repo, www.svgrepo.com, Transformed by: SVG Repo Mixer Tools -->
<svg height="256px" width="256px" version="1.1" id="Layer_1" xmlns="http://www.w3.org/2000/svg" xmlns:xlink="http://www.w3.org/1999/xlink" viewBox="-51.2 -51.2 614.40 614.40" xml:space="preserve" fill="#000000" stroke="#000000" stroke-width="0.00512" transform="matrix(1, 0, 0, 1, 0, 0)">
<g id="SVGRepo_bgCarrier" stroke-width="0"/>
<g id="SVGRepo_tracerCarrier" stroke-linecap="round" stroke-linejoin="round"/>
<g id="SVGRepo_iconCarrier"> <polygon style="fill:#E0B76E;" points="376.808,187.877 256,512 28.996,384.006 28.996,127.994 "/> <polygon style="fill:#F4CE8F;" points="256,0 28.996,127.994 256,256 256,512 483.004,384.006 483.004,127.994 "/> <polygon style="fill:#F2CA7F;" points="256,256 256,512 483.004,384.006 483.004,127.994 "/> <polyline style="fill:#79B1D6;" points="331.205,42.407 104.201,170.401 174.43,210.009 401.434,82.004 401.445,82.004 "/> <g> <polygon style="fill:#898686;" points="403.227,272.518 369.285,248.933 334.261,311.297 360.046,296.799 360.046,402.452 377.989,392.332 377.989,286.709 "/> <polygon style="fill:#898686;" points="166.189,257.591 166.189,278.202 64.679,220.951 64.679,200.353 "/> <polygon style="fill:#898686;" points="166.189,308.908 166.189,329.519 64.679,272.28 64.679,251.682 "/> </g> </g>
</svg>