<?xml version="1.0" encoding="iso-8859-1"?>
<!-- Uploaded to: SVG Repo, www.svgrepo.com, Generator: SVG Repo Mixer Tools -->
<svg height="800px" width="800px" version="1.1" id="Layer_1" xmlns="http://www.w3.org/2000/svg" xmlns:xlink="http://www.w3.org/1999/xlink" 
	 viewBox="0 0 512 512" xml:space="preserve">
<polygon style="fill:#E0B76E;" points="350.45,258.595 256,512 78.524,411.932 78.524,211.778 "/>
<polygon style="fill:#F2CA7F;" points="256,111.71 78.524,211.778 256,311.855 256,512 433.476,411.932 433.476,211.778 "/>
<polygon style="fill:#F4CE8F;" points="256,311.855 433.476,211.778 256,111.71 78.524,211.778 "/>
<g>
	<polyline style="fill:#EDEBEB;" points="313.605,225.066 361.369,251.998 361.369,452.591 328.499,471.113 328.499,270.533 
		328.499,270.521 280.734,243.588 	"/>
	<polyline style="fill:#EDEBEB;" points="231.515,243.588 183.749,270.521 183.749,270.533 183.749,471.113 150.878,452.591 
		150.878,251.998 198.644,225.066 	"/>
</g>
<polygon style="fill:#79B1D6;" points="316.733,94.45 256,257.395 141.878,193.049 141.878,64.344 "/>
<polygon style="fill:#8CC1EA;" points="370.122,64.346 370.122,193.051 330.034,215.651 297.164,234.185 256.006,257.398 
	256.006,128.693 141.878,64.346 181.761,41.855 214.632,23.321 256.006,0 "/>
<polygon style="fill:#9CD2F4;" points="370.122,64.346 328.747,87.679 295.889,106.202 256.006,128.693 141.878,64.346 
	181.761,41.855 214.632,23.321 256.006,0 "/>
<polygon style="fill:#79B1D6;" points="330.034,88.401 330.034,215.651 297.164,234.185 297.164,106.923 295.889,106.202 
	181.761,41.855 214.632,23.321 328.747,87.679 "/>
</svg>