<?xml version="1.0" encoding="UTF-8" standalone="no"?>
<!-- Created with Inkscape (http://www.inkscape.org/) -->

<svg
   xmlns:dc="http://purl.org/dc/elements/1.1/"
   xmlns:cc="http://creativecommons.org/ns#"
   xmlns:rdf="http://www.w3.org/1999/02/22-rdf-syntax-ns#"
   xmlns:svg="http://www.w3.org/2000/svg"
   xmlns="http://www.w3.org/2000/svg"
   xmlns:sodipodi="http://sodipodi.sourceforge.net/DTD/sodipodi-0.dtd"
   xmlns:inkscape="http://www.inkscape.org/namespaces/inkscape"
   width="240.99998"
   height="105.381"
   viewBox="0 0 240.99999 105.381"
   id="svg4430"
   version="1.1"
   inkscape:version="0.91 r13725"
   sodipodi:docname="cmhc-schl.svg">
  <defs
     id="defs4432" />
  <sodipodi:namedview
     id="base"
     pagecolor="#ffffff"
     bordercolor="#666666"
     borderopacity="1.0"
     inkscape:pageopacity="0.0"
     inkscape:pageshadow="2"
     inkscape:zoom="3.7708333"
     inkscape:cx="120"
     inkscape:cy="52.1905"
     inkscape:document-units="px"
     inkscape:current-layer="layer1"
     showgrid="false"
     fit-margin-top="0"
     fit-margin-left="0"
     fit-margin-right="0"
     fit-margin-bottom="0"
     units="px"
     inkscape:window-width="1280"
     inkscape:window-height="744"
     inkscape:window-x="-4"
     inkscape:window-y="-4"
     inkscape:window-maximized="1" />
  <metadata
     id="metadata4435">
    <rdf:RDF>
      <cc:Work
         rdf:about="">
        <dc:format>image/svg+xml</dc:format>
        <dc:type
           rdf:resource="http://purl.org/dc/dcmitype/StillImage" />
        <dc:title></dc:title>
      </cc:Work>
    </rdf:RDF>
  </metadata>
  <g
     inkscape:label="Layer 1"
     inkscape:groupmode="layer"
     id="layer1"
     transform="translate(1240,-756.31455)">
    <g
       id="g4439"
       transform="translate(-1244.5,752.00555)">
	<polyline
   id="polyline4441"
   points="5,105.089 5,72.338 124.936,4.809 245,72.338 245,105.089 124.936,38.797 5,105.089  "
   style="fill:#ed1b2d" />

	<path
   id="path4443"
   d="m 122.332,86.363 c -0.856,0.028 -1.595,-0.912 -2.321,-1.134 0.602,2.361 1.789,7.461 1.351,7.739 -0.455,0.299 -2.719,-2.697 -3.955,-3.727 -0.414,0.804 -0.061,2.16 -0.965,2.523 -0.707,0.271 -2.144,-0.344 -3.198,-0.291 0.271,1.042 1.49,2.325 1.29,3.121 -0.204,0.819 -1.589,0.989 -2.109,1.764 1.75,1.515 6.845,5.071 6.845,6.053 0,0.751 -0.707,2.03 -0.951,2.906 1.91,-0.254 4.853,-0.819 6.113,-0.896 0,1.647 -0.004,4.769 -0.004,4.769 l 1.007,0 c 0,0 -0.004,-3.121 -0.004,-4.769 1.256,0.077 4.191,0.643 6.109,0.896 -0.25,-0.876 -0.957,-2.155 -0.957,-2.906 0,-0.981 5.111,-4.538 6.859,-6.053 -0.521,-0.774 -1.905,-0.944 -2.111,-1.764 -0.202,-0.796 1.021,-2.079 1.288,-3.121 -1.054,-0.053 -2.487,0.562 -3.197,0.291 -0.904,-0.363 -0.55,-1.72 -0.961,-2.523 -1.239,1.029 -3.509,4.025 -3.965,3.727 -0.437,-0.278 0.751,-5.378 1.356,-7.739 -0.73,0.222 -1.466,1.162 -2.321,1.134 -0.996,-0.024 -1.202,-1.905 -2.595,-4.546 -1.413,2.677 -1.613,4.522 -2.604,4.546"
   inkscape:connector-curvature="0"
   style="fill:#ed1b2d" />

	<path
   id="path4445"
   d="m 41.443,103.396 c -1.992,-1.82 -2.543,-4.17 -2.543,-6.266 0,-1.708 0.547,-3.803 2.374,-5.664 1.342,-1.365 3.577,-2.321 6.615,-2.321 0.806,0 1.879,0.121 2.56,0.258 0.759,0.158 1.403,0.271 2.047,0.312 0.22,0.02 0.262,0.101 0.262,0.226 0,0.17 -0.063,0.46 -0.101,1.216 -0.042,0.686 -0.042,1.437 -0.063,1.748 -0.022,0.311 -0.063,0.436 -0.18,0.436 -0.143,0 -0.161,-0.146 -0.161,-0.436 0,-0.812 -0.319,-1.272 -0.842,-1.732 -0.701,-0.626 -1.908,-1.191 -3.654,-1.191 -2.667,0 -3.852,0.872 -4.558,1.587 -1.461,1.462 -1.92,3.307 -1.92,5.435 0,3.904 2.229,7.667 7.245,7.667 1.502,0 2.408,-0.247 3.209,-1.103 0.422,-0.46 0.682,-1.114 0.745,-1.485 0.038,-0.23 0.079,-0.315 0.198,-0.315 0.095,0 0.133,0.146 0.133,0.315 0,0.141 -0.234,1.655 -0.436,2.365 -0.117,0.392 -0.156,0.437 -0.519,0.602 -0.805,0.335 -1.994,0.477 -3.291,0.477 -3.002,-0.003 -5.497,-0.657 -7.12,-2.131"
   inkscape:connector-curvature="0"
   style="fill:#231f20" />

	<path
   id="path4447"
   d="m 97.408,103.396 c -1.994,-1.82 -2.545,-4.17 -2.545,-6.266 0,-1.708 0.545,-3.803 2.376,-5.664 1.338,-1.365 3.579,-2.321 6.615,-2.321 0.801,0 1.877,0.121 2.562,0.258 0.757,0.158 1.399,0.271 2.043,0.312 0.218,0.02 0.26,0.101 0.26,0.226 0,0.17 -0.061,0.46 -0.101,1.216 -0.038,0.686 -0.038,1.437 -0.058,1.748 -0.022,0.311 -0.065,0.436 -0.18,0.436 -0.144,0 -0.164,-0.146 -0.164,-0.436 0,-0.812 -0.319,-1.272 -0.842,-1.732 -0.699,-0.626 -1.906,-1.191 -3.654,-1.191 -2.665,0 -3.852,0.872 -4.556,1.587 -1.461,1.462 -1.92,3.307 -1.92,5.435 0,3.904 2.225,7.667 7.239,7.667 1.506,0 2.41,-0.247 3.213,-1.103 0.422,-0.46 0.685,-1.114 0.745,-1.485 0.038,-0.23 0.077,-0.315 0.196,-0.315 0.097,0 0.137,0.146 0.137,0.315 0,0.141 -0.234,1.655 -0.436,2.365 -0.119,0.392 -0.158,0.437 -0.521,0.602 -0.803,0.335 -1.992,0.477 -3.288,0.477 -3.003,-0.003 -5.502,-0.657 -7.121,-2.131"
   inkscape:connector-curvature="0"
   style="fill:#231f20" />

	<path
   id="path4449"
   d="m 157.771,103.405 c -2.051,-1.817 -2.612,-4.32 -2.612,-6.307 0,-1.704 0.602,-3.844 2.483,-5.705 1.264,-1.251 3.693,-2.236 6.701,-2.236 0.824,0 2.047,0.117 2.746,0.259 0.774,0.157 1.433,0.271 2.099,0.311 0.223,0.017 0.267,0.101 0.267,0.227 0,0.165 -0.064,0.415 -0.101,1.175 -0.045,0.682 -0.045,1.433 -0.068,1.744 -0.017,0.314 -0.061,0.439 -0.182,0.439 -0.146,0 -0.166,-0.149 -0.166,-0.439 0,-0.816 -0.327,-1.264 -0.859,-1.729 -0.723,-0.634 -2.075,-1.19 -3.868,-1.19 -2.741,0 -3.957,0.872 -4.68,1.578 -1.501,1.47 -1.97,3.271 -1.97,5.402 0,3.899 2.289,7.707 7.433,7.707 1.542,0 2.645,-0.307 3.468,-1.159 0.433,-0.46 0.699,-1.114 0.764,-1.489 0.044,-0.23 0.084,-0.312 0.201,-0.312 0.105,0 0.142,0.142 0.142,0.312 0,0.141 -0.242,1.695 -0.448,2.406 -0.125,0.392 -0.161,0.439 -0.533,0.605 -0.823,0.335 -2.216,0.533 -3.549,0.533 -3.086,0 -5.609,-0.654 -7.268,-2.132"
   inkscape:connector-curvature="0"
   style="fill:#231f20" />

	<path
   id="path4451"
   d="m 72.25,102.541 c 0.079,0.751 0.224,1.922 1.104,2.217 0.598,0.189 1.128,0.189 1.336,0.189 0.101,0 0.164,0.021 0.164,0.104 0,0.13 -0.186,0.19 -0.43,0.19 -0.452,0 -3.157,-0.061 -3.92,-0.13 -0.468,-0.04 -0.571,-0.104 -0.571,-0.205 0,-0.085 0.042,-0.126 0.143,-0.149 0.101,-0.021 0.124,-0.38 0.083,-0.751 l -1.023,-10.041 -0.061,0 -4.728,10.121 c -0.382,0.836 -0.533,1.114 -0.795,1.114 -0.242,0 -0.41,-0.271 -0.757,-0.965 -0.519,-1.025 -4.641,-9.669 -4.863,-10.238 l -0.087,0 -0.894,9.128 c -0.022,0.336 -0.028,0.711 -0.03,1.066 -0.002,0.314 0.22,0.585 0.531,0.646 0.347,0.085 0.654,0.109 0.777,0.109 0.083,0 0.166,0.04 0.166,0.104 0,0.149 -0.123,0.19 -0.372,0.19 -0.759,0 -1.742,-0.064 -1.906,-0.064 -0.186,0 -1.17,0.064 -1.722,0.064 -0.206,0 -0.349,-0.041 -0.349,-0.19 0,-0.064 0.103,-0.104 0.202,-0.104 0.164,0 0.307,0 0.618,-0.064 0.678,-0.125 0.743,-0.945 0.832,-1.74 l 1.653,-13.698 c 0.055,-0.271 0.243,-0.42 0.366,-0.42 0.127,0 0.256,0.149 0.367,0.354 l 6.155,12.678 5.806,-12.597 c 0.133,-0.263 0.293,-0.424 0.44,-0.424 0.182,0 0.345,0.198 0.39,0.598 l 1.375,12.908"
   inkscape:connector-curvature="0"
   style="fill:#231f20" />

	<path
   id="path4453"
   d="m 91.196,99.186 c 0,2.011 0,3.662 0.103,4.534 0.065,0.609 0.19,1.066 0.815,1.15 0.291,0.045 0.751,0.085 0.941,0.077 0.127,0 0.167,0.061 0.167,0.125 0,0.109 -0.101,0.17 -0.333,0.17 -1.153,0 -2.753,-0.064 -2.856,-0.064 -0.109,0 -1.593,0.064 -2.218,0.064 -0.232,0 -0.335,-0.041 -0.335,-0.17 0,-0.064 0.041,-0.125 0.167,-0.125 0.188,0 0.438,-0.045 0.624,-0.077 0.418,-0.084 0.525,-0.541 0.609,-1.15 0.101,-0.88 0.101,-2.535 0.101,-4.546 l 0,-2.087 c 0,-0.085 -0.061,-0.13 -0.125,-0.13 l -8.276,0 c -0.063,0 -0.125,0.021 -0.125,0.13 l 0,2.087 c 0,2.011 0,3.666 0.107,4.546 0.061,0.609 0.186,1.066 0.814,1.15 0.294,0.045 0.755,0.085 0.942,0.077 0.125,0 0.166,0.061 0.166,0.125 0,0.109 -0.105,0.17 -0.335,0.17 -1.151,0 -2.463,-0.064 -2.566,-0.064 -0.107,0 -1.883,0.064 -2.509,0.064 -0.226,0 -0.335,-0.041 -0.335,-0.17 0,-0.064 0.046,-0.125 0.167,-0.125 0.188,0 0.438,-0.045 0.632,-0.077 0.414,-0.084 0.521,-0.541 0.604,-1.15 0.103,-0.872 0.103,-2.523 0.103,-4.55 l 0,-3.674 c 0,-3.263 0,-3.844 -0.042,-4.514 -0.039,-0.707 -0.208,-1.046 -0.896,-1.188 -0.169,-0.04 -0.521,-0.068 -0.71,-0.068 -0.085,0 -0.167,-0.04 -0.167,-0.125 0,-0.129 0.101,-0.174 0.333,-0.174 0.938,0 2.715,0.068 2.822,0.068 0.103,0 1.417,-0.068 2.045,-0.068 0.232,0 0.335,0.045 0.335,0.174 0,0.085 -0.083,0.125 -0.17,0.125 -0.145,0 -0.271,0.028 -0.519,0.068 -0.569,0.102 -0.737,0.452 -0.775,1.188 -0.044,0.67 -0.044,1.251 -0.044,4.514 l 0,0.432 c 0,0.105 0.063,0.125 0.125,0.125 l 8.276,0 c 0.064,0 0.125,-0.02 0.125,-0.125 l 0,-0.432 c 0,-3.263 0,-3.844 -0.038,-4.514 -0.044,-0.707 -0.212,-1.046 -0.9,-1.188 -0.169,-0.04 -0.523,-0.068 -0.71,-0.068 -0.085,0 -0.17,-0.04 -0.17,-0.125 0,-0.129 0.107,-0.174 0.337,-0.174 0.94,0 2.424,0.068 2.533,0.068 0.103,0 1.704,-0.068 2.333,-0.068 0.23,0 0.333,0.045 0.333,0.174 0,0.085 -0.083,0.125 -0.167,0.125 -0.147,0 -0.272,0.028 -0.521,0.068 -0.567,0.102 -0.733,0.452 -0.773,1.188 -0.042,0.67 -0.042,1.251 -0.042,4.514 l 0,3.69"
   inkscape:connector-curvature="0"
   style="fill:#231f20" />

	<path
   id="path4455"
   d="m 188.313,99.198 c 0,2.007 0,3.657 0.105,4.538 0.061,0.602 0.186,1.062 0.812,1.146 0.294,0.044 0.755,0.085 0.94,0.072 0.125,0 0.165,0.064 0.165,0.129 0,0.105 -0.101,0.17 -0.331,0.17 -1.15,0 -2.749,-0.064 -2.854,-0.064 -0.104,0 -1.59,0.064 -2.22,0.064 -0.23,0 -0.331,-0.044 -0.331,-0.17 0,-0.064 0.04,-0.129 0.161,-0.129 0.193,0 0.444,-0.04 0.63,-0.072 0.42,-0.085 0.524,-0.545 0.609,-1.15 0.105,-0.885 0.105,-2.532 0.105,-4.551 l 0,-2.123 c 0,-0.085 -0.069,-0.13 -0.125,-0.13 l -8.846,0 c -0.065,0 -0.134,0.024 -0.134,0.13 l 0,2.123 c 0,2.019 0,3.666 0.109,4.551 0.064,0.605 0.189,1.065 0.815,1.15 0.29,0.044 0.751,0.085 0.94,0.072 0.125,0 0.166,0.064 0.166,0.129 0,0.105 -0.105,0.17 -0.331,0.17 -1.155,0 -2.467,-0.064 -2.572,-0.064 -0.104,0 -1.881,0.064 -2.503,0.064 -0.23,0 -0.335,-0.044 -0.335,-0.17 0,-0.064 0.04,-0.129 0.165,-0.129 0.186,0 0.44,-0.04 0.63,-0.072 0.416,-0.085 0.521,-0.545 0.605,-1.146 0.102,-0.881 0.102,-2.531 0.102,-4.559 l 0,-3.677 c 0,-3.254 0,-3.84 -0.041,-4.506 -0.04,-0.715 -0.21,-1.041 -0.9,-1.19 -0.165,-0.045 -0.521,-0.061 -0.706,-0.061 -0.081,0 -0.17,-0.049 -0.17,-0.134 0,-0.125 0.105,-0.17 0.335,-0.17 0.938,0 2.714,0.065 2.818,0.065 0.105,0 1.421,-0.065 2.047,-0.065 0.234,0 0.335,0.045 0.335,0.17 0,0.085 -0.085,0.134 -0.165,0.134 -0.146,0 -0.274,0.016 -0.521,0.061 -0.568,0.101 -0.738,0.46 -0.774,1.19 C 177,91.66 177,92.246 177,95.5 l 0,0.44 c 0,0.108 0.068,0.129 0.134,0.129 l 8.846,0 c 0.056,0 0.125,-0.021 0.125,-0.129 l 0,-0.44 c 0,-3.254 0,-3.84 -0.045,-4.506 -0.044,-0.715 -0.21,-1.041 -0.9,-1.19 -0.169,-0.045 -0.521,-0.061 -0.71,-0.061 -0.085,0 -0.17,-0.049 -0.17,-0.134 0,-0.125 0.105,-0.17 0.335,-0.17 0.945,0 2.431,0.065 2.535,0.065 0.105,0 1.704,-0.065 2.334,-0.065 0.23,0 0.331,0.045 0.331,0.17 0,0.085 -0.081,0.134 -0.166,0.134 -0.145,0 -0.274,0.016 -0.521,0.061 -0.565,0.101 -0.73,0.46 -0.771,1.19 -0.045,0.666 -0.045,1.252 -0.045,4.506 l 0,3.698"
   inkscape:connector-curvature="0"
   style="fill:#231f20" />

	<path
   id="path4457"
   d="m 142.949,104.976 c -0.322,-0.146 -0.351,-0.227 -0.351,-0.796 0,-1.045 0.097,-1.881 0.121,-2.216 0.02,-0.227 0.068,-0.335 0.186,-0.335 0.137,0 0.161,0.064 0.161,0.233 0,0.187 0,0.48 0.069,0.771 0.351,1.546 1.893,2.136 3.447,2.136 2.253,0 3.178,-1.445 3.178,-2.781 0,-1.341 -0.618,-2.447 -2.516,-3.779 l -1.065,-0.747 c -2.523,-1.76 -2.976,-3.068 -2.976,-4.489 0,-2.236 1.805,-3.815 4.788,-3.815 0.912,0 1.595,0.085 2.192,0.202 0.448,0.085 0.634,0.104 0.815,0.104 0.186,0 0.222,0.041 0.222,0.146 0,0.105 -0.093,0.791 -0.093,2.217 0,0.335 -0.04,0.48 -0.153,0.48 -0.133,0 -0.157,-0.105 -0.178,-0.267 -0.024,-0.255 -0.165,-0.819 -0.311,-1.05 -0.138,-0.23 -0.768,-1.106 -2.943,-1.106 -1.466,0 -2.475,0.889 -2.475,2.111 0,1.188 0.363,1.959 2.563,3.569 l 0.654,0.452 c 2.773,1.954 3.428,3.392 3.428,5.059 0,0.856 -0.493,2.563 -2.107,3.585 -1.01,0.63 -2.277,0.877 -3.525,0.877 -1.092,0 -2.174,-0.145 -3.131,-0.561"
   inkscape:connector-curvature="0"
   style="fill:#231f20" />

	<path
   id="path4459"
   d="m 198.628,99.218 c 0,3.073 0.085,4.417 0.46,4.789 0.331,0.331 1.821,0.484 3.456,0.484 1.106,0 2.026,-0.028 2.527,-0.634 0.274,-0.331 0.484,-0.86 0.545,-1.252 0.021,-0.17 0.061,-0.267 0.182,-0.267 0.102,0 0.125,0.077 0.125,0.312 0,0.229 -0.145,1.485 -0.307,2.091 -0.146,0.477 -0.21,0.562 -1.316,0.562 -3.012,0 -5.563,-0.125 -6.778,-0.113 -0.189,0 -1.655,0.064 -2.281,0.053 -0.222,0 -0.331,-0.045 -0.331,-0.158 0,-0.064 0.041,-0.129 0.166,-0.129 0.189,0 0.444,-0.04 0.634,-0.085 0.416,-0.084 0.521,-0.541 0.605,-1.146 0.101,-0.876 0.101,-2.527 0.101,-4.546 l 0,-3.674 c 0,-3.254 0,-3.844 -0.04,-4.51 -0.04,-0.715 -0.21,-1.041 -0.9,-1.19 -0.17,-0.045 -0.524,-0.061 -0.71,-0.061 -0.085,0 -0.166,-0.049 -0.166,-0.134 0,-0.125 0.105,-0.17 0.335,-0.17 0.94,0 2.483,0.065 2.588,0.065 0.105,0 1.857,-0.065 2.483,-0.065 0.229,0 0.335,0.045 0.335,0.17 0,0.085 -0.085,0.134 -0.166,0.134 -0.145,0 -0.439,0.016 -0.69,0.061 -0.605,0.101 -0.771,0.46 -0.812,1.19 -0.044,0.666 -0.044,1.256 -0.044,4.51 l 0,3.713"
   inkscape:connector-curvature="0"
   style="fill:#231f20" />

</g>
  </g>
</svg>
