<svg xmlns="http://www.w3.org/2000/svg" xmlns:xlink="http://www.w3.org/1999/xlink" width="180" zoomAndPan="magnify" viewBox="0 0 135 31.5" height="42" preserveAspectRatio="xMidYMid meet" version="1.0"><defs><g/><clipPath id="4b683ac8fd"><path d="M 1.054688 7 L 18 7 L 18 22 L 1.054688 22 Z M 1.054688 7 " clip-rule="nonzero"/></clipPath><clipPath id="b75938b483"><path d="M 121 9 L 133.945312 9 L 133.945312 22 L 121 22 Z M 121 9 " clip-rule="nonzero"/></clipPath><clipPath id="2cdb17a758"><path d="M 1.054688 23 L 98 23 L 98 26 L 1.054688 26 Z M 1.054688 23 " clip-rule="nonzero"/></clipPath><clipPath id="67116ddccb"><path d="M 41 23 L 133.945312 23 L 133.945312 26 L 41 26 Z M 41 23 " clip-rule="nonzero"/></clipPath></defs><g clip-path="url(#4b683ac8fd)"><g fill="#00aeef" fill-opacity="1"><g transform="translate(-0.540512, 21.148419)"><g><path d="M 7.640625 -13.8125 L 7.640625 -13.5 C 7.304688 -13.457031 7.097656 -13.394531 7.015625 -13.3125 C 6.941406 -13.238281 6.90625 -13.140625 6.90625 -13.015625 L 6.90625 -5.984375 C 6.90625 -5.054688 7.164062 -4.351562 7.6875 -3.875 C 8.21875 -3.394531 9.0625 -3.15625 10.21875 -3.15625 C 11.457031 -3.15625 12.316406 -3.414062 12.796875 -3.9375 C 13.273438 -4.457031 13.515625 -5.140625 13.515625 -5.984375 L 13.515625 -13.015625 C 13.515625 -13.160156 13.46875 -13.265625 13.375 -13.328125 C 13.289062 -13.398438 13.09375 -13.457031 12.78125 -13.5 L 12.78125 -13.8125 L 18.1875 -13.8125 L 18.1875 -13.5 C 17.875 -13.457031 17.671875 -13.398438 17.578125 -13.328125 C 17.492188 -13.265625 17.453125 -13.160156 17.453125 -13.015625 L 17.453125 -5.9375 C 17.453125 -3.976562 16.859375 -2.472656 15.671875 -1.421875 C 14.484375 -0.367188 12.664062 0.15625 10.21875 0.15625 C 8.957031 0.15625 7.867188 0.015625 6.953125 -0.265625 C 6.046875 -0.546875 5.296875 -0.945312 4.703125 -1.46875 C 4.117188 -1.988281 3.679688 -2.625 3.390625 -3.375 C 3.109375 -4.132812 2.96875 -4.988281 2.96875 -5.9375 L 2.96875 -13.015625 C 2.96875 -13.160156 2.921875 -13.265625 2.828125 -13.328125 C 2.742188 -13.398438 2.546875 -13.457031 2.234375 -13.5 L 2.234375 -13.8125 Z M 7.640625 -13.8125 "/></g></g></g></g><g fill="#00aeef" fill-opacity="1"><g transform="translate(18.543975, 21.148419)"><g><path d="M 7.84375 -11.546875 L 7.84375 -11.234375 C 7.6875 -11.210938 7.554688 -11.164062 7.453125 -11.09375 C 7.347656 -11.03125 7.296875 -10.9375 7.296875 -10.8125 C 7.296875 -10.738281 7.421875 -10.566406 7.671875 -10.296875 C 7.703125 -10.242188 7.773438 -10.15625 7.890625 -10.03125 C 8.003906 -9.90625 8.117188 -9.773438 8.234375 -9.640625 C 8.359375 -9.515625 8.476562 -9.390625 8.59375 -9.265625 C 8.707031 -9.140625 8.78125 -9.0625 8.8125 -9.03125 C 8.9375 -8.882812 9.132812 -8.671875 9.40625 -8.390625 C 9.675781 -8.117188 9.96875 -7.8125 10.28125 -7.46875 C 10.601562 -7.125 10.921875 -6.785156 11.234375 -6.453125 C 11.546875 -6.117188 11.816406 -5.832031 12.046875 -5.59375 L 12.046875 -10.765625 C 12.046875 -10.890625 12 -10.992188 11.90625 -11.078125 C 11.820312 -11.160156 11.625 -11.210938 11.3125 -11.234375 L 11.3125 -11.546875 L 15.9375 -11.546875 L 15.9375 -11.234375 C 15.625 -11.210938 15.421875 -11.160156 15.328125 -11.078125 C 15.242188 -10.992188 15.203125 -10.890625 15.203125 -10.765625 L 15.203125 -0.8125 C 15.203125 -0.675781 15.242188 -0.5625 15.328125 -0.46875 C 15.421875 -0.382812 15.625 -0.332031 15.9375 -0.3125 L 15.9375 0 L 11.078125 0 L 11.078125 -0.3125 C 11.585938 -0.3125 11.84375 -0.425781 11.84375 -0.65625 C 11.84375 -0.8125 11.59375 -1.171875 11.09375 -1.734375 C 10.59375 -2.296875 9.800781 -3.125 8.71875 -4.21875 C 8.132812 -4.832031 7.578125 -5.425781 7.046875 -6 C 6.515625 -6.582031 6.003906 -7.15625 5.515625 -7.71875 L 5.453125 -7.671875 L 5.453125 -0.8125 C 5.453125 -0.675781 5.492188 -0.5625 5.578125 -0.46875 C 5.660156 -0.382812 5.847656 -0.332031 6.140625 -0.3125 L 6.140625 0 L 1.65625 0 L 1.65625 -0.3125 C 1.9375 -0.332031 2.113281 -0.382812 2.1875 -0.46875 C 2.269531 -0.5625 2.3125 -0.675781 2.3125 -0.8125 L 2.3125 -10.765625 C 2.3125 -10.890625 2.265625 -10.992188 2.171875 -11.078125 C 2.085938 -11.160156 1.894531 -11.210938 1.59375 -11.234375 L 1.59375 -11.546875 Z M 7.84375 -11.546875 "/></g></g></g><g fill="#00aeef" fill-opacity="1"><g transform="translate(34.714564, 21.148419)"><g><path d="M 6.984375 -11.546875 L 6.984375 -11.234375 C 6.617188 -11.210938 6.382812 -11.160156 6.28125 -11.078125 C 6.1875 -10.992188 6.140625 -10.878906 6.140625 -10.734375 L 6.140625 -0.8125 C 6.140625 -0.675781 6.179688 -0.5625 6.265625 -0.46875 C 6.359375 -0.382812 6.597656 -0.332031 6.984375 -0.3125 L 6.984375 0 L 1.78125 0 L 1.78125 -0.3125 C 2.164062 -0.332031 2.398438 -0.382812 2.484375 -0.46875 C 2.578125 -0.5625 2.625 -0.675781 2.625 -0.8125 L 2.625 -10.765625 C 2.625 -10.898438 2.570312 -11.003906 2.46875 -11.078125 C 2.363281 -11.160156 2.132812 -11.210938 1.78125 -11.234375 L 1.78125 -11.546875 Z M 6.984375 -11.546875 "/></g></g></g><g fill="#ffffff" fill-opacity="1"><g transform="translate(42.117433, 21.148419)"><g><path d="M 8.875 -13.8125 L 8.875 -13.5 C 8.613281 -13.476562 8.441406 -13.421875 8.359375 -13.328125 C 8.285156 -13.242188 8.25 -13.164062 8.25 -13.09375 C 8.25 -12.988281 8.34375 -12.722656 8.53125 -12.296875 C 8.71875 -11.867188 9.023438 -11.179688 9.453125 -10.234375 C 9.742188 -9.566406 10.007812 -8.96875 10.25 -8.4375 C 10.488281 -7.90625 10.640625 -7.550781 10.703125 -7.375 C 10.953125 -7.914062 11.203125 -8.445312 11.453125 -8.96875 C 11.710938 -9.5 12.007812 -10.097656 12.34375 -10.765625 C 12.675781 -11.429688 12.921875 -11.953125 13.078125 -12.328125 C 13.242188 -12.703125 13.328125 -12.941406 13.328125 -13.046875 C 13.328125 -13.304688 13.117188 -13.457031 12.703125 -13.5 L 12.703125 -13.8125 L 19.8125 -13.8125 L 19.8125 -13.5 C 19.476562 -13.457031 19.269531 -13.394531 19.1875 -13.3125 C 19.113281 -13.238281 19.078125 -13.140625 19.078125 -13.015625 L 19.078125 -0.78125 C 19.078125 -0.664062 19.113281 -0.566406 19.1875 -0.484375 C 19.269531 -0.410156 19.476562 -0.351562 19.8125 -0.3125 L 19.8125 0 L 14.5625 0 L 14.5625 -0.3125 C 14.894531 -0.351562 15.097656 -0.410156 15.171875 -0.484375 C 15.253906 -0.566406 15.296875 -0.664062 15.296875 -0.78125 L 15.296875 -10.5 L 15.25 -10.5 L 10.578125 -0.3125 L 5.953125 -10.609375 L 5.90625 -10.609375 L 5.90625 -0.78125 C 5.90625 -0.664062 5.941406 -0.566406 6.015625 -0.484375 C 6.097656 -0.410156 6.304688 -0.351562 6.640625 -0.3125 L 6.640625 0 L 2.015625 0 L 2.015625 -0.3125 C 2.347656 -0.351562 2.550781 -0.410156 2.625 -0.484375 C 2.707031 -0.566406 2.75 -0.664062 2.75 -0.78125 L 2.75 -13.015625 C 2.75 -13.140625 2.707031 -13.238281 2.625 -13.3125 C 2.550781 -13.394531 2.347656 -13.457031 2.015625 -13.5 L 2.015625 -13.8125 Z M 8.875 -13.8125 "/></g></g></g><g fill="#ffffff" fill-opacity="1"><g transform="translate(62.645746, 21.148419)"><g><path d="M 4.40625 -5.78125 C 4.40625 -5.300781 4.492188 -4.867188 4.671875 -4.484375 C 4.847656 -4.097656 5.097656 -3.769531 5.421875 -3.5 C 5.742188 -3.226562 6.125 -3.015625 6.5625 -2.859375 C 7 -2.703125 7.476562 -2.625 8 -2.625 C 8.53125 -2.625 9.015625 -2.703125 9.453125 -2.859375 C 9.890625 -3.015625 10.269531 -3.226562 10.59375 -3.5 C 10.914062 -3.769531 11.164062 -4.097656 11.34375 -4.484375 C 11.519531 -4.867188 11.609375 -5.300781 11.609375 -5.78125 C 11.609375 -6.71875 11.269531 -7.472656 10.59375 -8.046875 C 9.914062 -8.628906 9.046875 -8.921875 7.984375 -8.921875 C 6.929688 -8.921875 6.070312 -8.628906 5.40625 -8.046875 C 4.738281 -7.460938 4.40625 -6.707031 4.40625 -5.78125 Z M 8 -11.703125 C 8.84375 -11.703125 9.679688 -11.582031 10.515625 -11.34375 C 11.359375 -11.113281 12.113281 -10.753906 12.78125 -10.265625 C 13.445312 -9.773438 13.984375 -9.15625 14.390625 -8.40625 C 14.804688 -7.664062 15.015625 -6.789062 15.015625 -5.78125 C 15.015625 -4.726562 14.800781 -3.828125 14.375 -3.078125 C 13.945312 -2.335938 13.398438 -1.726562 12.734375 -1.25 C 12.066406 -0.769531 11.3125 -0.414062 10.46875 -0.1875 C 9.632812 0.0390625 8.8125 0.15625 8 0.15625 C 7.144531 0.15625 6.300781 0.0390625 5.46875 -0.1875 C 4.632812 -0.425781 3.882812 -0.789062 3.21875 -1.28125 C 2.5625 -1.769531 2.023438 -2.382812 1.609375 -3.125 C 1.203125 -3.875 1 -4.757812 1 -5.78125 C 1 -6.769531 1.195312 -7.632812 1.59375 -8.375 C 2 -9.125 2.535156 -9.742188 3.203125 -10.234375 C 3.867188 -10.722656 4.613281 -11.085938 5.4375 -11.328125 C 6.269531 -11.578125 7.125 -11.703125 8 -11.703125 Z M 8 -11.703125 "/></g></g></g><g fill="#ffffff" fill-opacity="1"><g transform="translate(77.34626, 21.148419)"><g><path d="M 5.5625 -11.546875 L 5.5625 -11.234375 C 5.125 -11.234375 4.90625 -11.144531 4.90625 -10.96875 C 4.90625 -10.882812 5.253906 -9.890625 5.953125 -7.984375 C 6.285156 -7.085938 6.566406 -6.328125 6.796875 -5.703125 C 7.023438 -5.085938 7.179688 -4.613281 7.265625 -4.28125 L 7.328125 -4.28125 C 7.585938 -4.925781 7.851562 -5.566406 8.125 -6.203125 C 8.394531 -6.847656 8.644531 -7.441406 8.875 -7.984375 C 9.101562 -8.535156 9.300781 -9.015625 9.46875 -9.421875 C 9.632812 -9.828125 9.75 -10.117188 9.8125 -10.296875 C 9.882812 -10.460938 9.941406 -10.609375 9.984375 -10.734375 C 10.023438 -10.859375 10.046875 -10.9375 10.046875 -10.96875 C 10.046875 -11.144531 9.847656 -11.234375 9.453125 -11.234375 L 9.453125 -11.546875 L 13.828125 -11.546875 L 13.828125 -11.234375 C 13.710938 -11.210938 13.597656 -11.179688 13.484375 -11.140625 C 13.378906 -11.097656 13.3125 -11.007812 13.28125 -10.875 C 13.257812 -10.800781 13.207031 -10.664062 13.125 -10.46875 C 13.050781 -10.28125 12.960938 -10.050781 12.859375 -9.78125 C 12.753906 -9.507812 12.632812 -9.210938 12.5 -8.890625 C 12.375 -8.566406 12.25 -8.242188 12.125 -7.921875 L 9.921875 -2.546875 C 9.796875 -2.242188 9.703125 -2.019531 9.640625 -1.875 C 9.585938 -1.726562 9.53125 -1.582031 9.46875 -1.4375 C 9.40625 -1.269531 9.347656 -1.117188 9.296875 -0.984375 C 9.242188 -0.847656 9.21875 -0.75 9.21875 -0.6875 C 9.21875 -0.613281 9.257812 -0.53125 9.34375 -0.4375 C 9.425781 -0.351562 9.566406 -0.3125 9.765625 -0.3125 L 9.765625 0 L 4.21875 0 L 4.21875 -0.3125 C 4.414062 -0.3125 4.554688 -0.351562 4.640625 -0.4375 C 4.734375 -0.53125 4.78125 -0.617188 4.78125 -0.703125 C 4.78125 -0.742188 4.722656 -0.9375 4.609375 -1.28125 C 4.492188 -1.632812 4.347656 -2.070312 4.171875 -2.59375 C 3.992188 -3.125 3.800781 -3.691406 3.59375 -4.296875 C 3.382812 -4.910156 3.1875 -5.488281 3 -6.03125 C 2.644531 -7.050781 2.335938 -7.910156 2.078125 -8.609375 C 1.828125 -9.304688 1.613281 -9.867188 1.4375 -10.296875 C 1.351562 -10.515625 1.28125 -10.6875 1.21875 -10.8125 C 1.15625 -10.9375 1.097656 -11.03125 1.046875 -11.09375 C 0.992188 -11.15625 0.929688 -11.191406 0.859375 -11.203125 C 0.796875 -11.222656 0.710938 -11.234375 0.609375 -11.234375 L 0.609375 -11.546875 Z M 5.5625 -11.546875 "/></g></g></g><g fill="#ffffff" fill-opacity="1"><g transform="translate(90.602953, 21.148419)"><g><path d="M 14.3125 -8.609375 L 13.984375 -8.609375 C 13.984375 -8.867188 13.929688 -9.035156 13.828125 -9.109375 C 13.722656 -9.191406 13.617188 -9.234375 13.515625 -9.234375 L 5.859375 -9.234375 L 5.859375 -7.109375 L 10.78125 -7.109375 C 10.875 -7.109375 10.976562 -7.144531 11.09375 -7.21875 C 11.207031 -7.289062 11.265625 -7.457031 11.265625 -7.71875 L 11.578125 -7.71875 L 11.578125 -4.3125 L 11.265625 -4.3125 C 11.265625 -4.550781 11.210938 -4.707031 11.109375 -4.78125 C 11.003906 -4.863281 10.894531 -4.90625 10.78125 -4.90625 L 5.859375 -4.90625 L 5.859375 -2.3125 L 13.3125 -2.3125 C 13.445312 -2.3125 13.578125 -2.359375 13.703125 -2.453125 C 13.835938 -2.546875 13.929688 -2.71875 13.984375 -2.96875 L 14.3125 -2.96875 L 14.3125 0.546875 L 14.046875 0.546875 C 13.953125 0.304688 13.851562 0.15625 13.75 0.09375 C 13.644531 0.03125 13.503906 0 13.328125 0 L 1.59375 0 L 1.59375 -0.3125 C 1.914062 -0.351562 2.117188 -0.410156 2.203125 -0.484375 C 2.296875 -0.566406 2.34375 -0.675781 2.34375 -0.8125 L 2.34375 -10.765625 C 2.34375 -10.890625 2.289062 -10.992188 2.1875 -11.078125 C 2.09375 -11.160156 1.894531 -11.210938 1.59375 -11.234375 L 1.59375 -11.546875 L 13.515625 -11.546875 C 13.640625 -11.546875 13.75 -11.582031 13.84375 -11.65625 C 13.9375 -11.738281 13.984375 -11.894531 13.984375 -12.125 L 14.3125 -12.125 Z M 14.3125 -8.609375 "/></g></g></g><g fill="#ffffff" fill-opacity="1"><g transform="translate(105.303469, 21.148419)"><g><path d="M 9.5 -6.515625 C 10.007812 -6.515625 10.429688 -6.625 10.765625 -6.84375 C 11.109375 -7.070312 11.28125 -7.429688 11.28125 -7.921875 C 11.28125 -8.453125 11.101562 -8.820312 10.75 -9.03125 C 10.394531 -9.238281 9.910156 -9.34375 9.296875 -9.34375 L 5.75 -9.34375 L 5.75 -6.515625 Z M 10.296875 -11.546875 C 11.609375 -11.546875 12.648438 -11.234375 13.421875 -10.609375 C 14.203125 -9.992188 14.59375 -9.09375 14.59375 -7.90625 C 14.59375 -7.09375 14.351562 -6.394531 13.875 -5.8125 C 13.40625 -5.226562 12.675781 -4.742188 11.6875 -4.359375 C 12.257812 -3.484375 12.722656 -2.773438 13.078125 -2.234375 C 13.441406 -1.691406 13.71875 -1.28125 13.90625 -1 C 14.050781 -0.789062 14.195312 -0.628906 14.34375 -0.515625 C 14.488281 -0.398438 14.6875 -0.332031 14.9375 -0.3125 L 14.9375 0 L 9.640625 0 L 9.640625 -0.3125 C 9.773438 -0.3125 9.910156 -0.335938 10.046875 -0.390625 C 10.191406 -0.441406 10.265625 -0.53125 10.265625 -0.65625 C 10.265625 -0.8125 9.929688 -1.453125 9.265625 -2.578125 C 8.597656 -3.710938 8.265625 -4.289062 8.265625 -4.3125 L 5.75 -4.3125 L 5.75 -0.78125 C 5.75 -0.664062 5.789062 -0.5625 5.875 -0.46875 C 5.96875 -0.382812 6.15625 -0.332031 6.4375 -0.3125 L 6.4375 0 L 1.921875 0 L 1.921875 -0.3125 C 2.140625 -0.351562 2.28125 -0.421875 2.34375 -0.515625 C 2.40625 -0.609375 2.4375 -0.695312 2.4375 -0.78125 L 2.4375 -10.734375 C 2.4375 -10.878906 2.398438 -10.988281 2.328125 -11.0625 C 2.265625 -11.144531 2.109375 -11.203125 1.859375 -11.234375 L 1.859375 -11.546875 Z M 10.296875 -11.546875 "/></g></g></g><g clip-path="url(#b75938b483)"><g fill="#ffffff" fill-opacity="1"><g transform="translate(120.003985, 21.148419)"><g><path d="M 7.171875 -11.703125 C 7.796875 -11.703125 8.410156 -11.660156 9.015625 -11.578125 C 9.617188 -11.503906 10.289062 -11.398438 11.03125 -11.265625 C 11.78125 -11.109375 12.234375 -11.03125 12.390625 -11.03125 C 12.523438 -11.03125 12.632812 -11.066406 12.71875 -11.140625 C 12.8125 -11.222656 12.894531 -11.289062 12.96875 -11.34375 L 13.25 -11.234375 L 11.6875 -7.921875 L 11.34375 -8.078125 L 11.359375 -8.375 C 11.359375 -8.445312 11.253906 -8.535156 11.046875 -8.640625 C 10.835938 -8.742188 10.5625 -8.847656 10.21875 -8.953125 C 9.882812 -9.054688 9.5 -9.144531 9.0625 -9.21875 C 8.625 -9.300781 8.1875 -9.34375 7.75 -9.34375 C 7.132812 -9.34375 6.628906 -9.304688 6.234375 -9.234375 C 5.835938 -9.171875 5.53125 -9.082031 5.3125 -8.96875 C 5.09375 -8.863281 4.941406 -8.742188 4.859375 -8.609375 C 4.785156 -8.472656 4.75 -8.34375 4.75 -8.21875 C 4.75 -8.039062 4.804688 -7.894531 4.921875 -7.78125 C 5.035156 -7.664062 5.222656 -7.566406 5.484375 -7.484375 C 5.742188 -7.410156 6.09375 -7.335938 6.53125 -7.265625 C 6.96875 -7.203125 7.519531 -7.132812 8.1875 -7.0625 C 9.9375 -6.863281 11.226562 -6.507812 12.0625 -6 C 12.90625 -5.5 13.328125 -4.722656 13.328125 -3.671875 C 13.328125 -3.128906 13.203125 -2.617188 12.953125 -2.140625 C 12.710938 -1.671875 12.351562 -1.265625 11.875 -0.921875 C 11.394531 -0.585938 10.796875 -0.320312 10.078125 -0.125 C 9.359375 0.0625 8.519531 0.15625 7.5625 0.15625 C 7.15625 0.15625 6.570312 0.113281 5.8125 0.03125 C 5.050781 -0.0390625 4.03125 -0.242188 2.75 -0.578125 C 2.488281 -0.648438 2.296875 -0.703125 2.171875 -0.734375 C 2.054688 -0.765625 1.960938 -0.78125 1.890625 -0.78125 C 1.765625 -0.78125 1.65625 -0.738281 1.5625 -0.65625 C 1.46875 -0.582031 1.375 -0.503906 1.28125 -0.421875 L 1 -0.5 L 2.078125 -4.015625 L 2.421875 -3.859375 C 2.398438 -3.753906 2.390625 -3.6875 2.390625 -3.65625 C 2.390625 -3.632812 2.390625 -3.601562 2.390625 -3.5625 C 2.390625 -3.394531 2.554688 -3.226562 2.890625 -3.0625 C 3.234375 -2.90625 3.660156 -2.757812 4.171875 -2.625 C 4.679688 -2.5 5.234375 -2.394531 5.828125 -2.3125 C 6.421875 -2.238281 6.976562 -2.203125 7.5 -2.203125 C 8.238281 -2.203125 8.828125 -2.296875 9.265625 -2.484375 C 9.703125 -2.679688 9.921875 -2.960938 9.921875 -3.328125 C 9.921875 -3.679688 9.675781 -3.941406 9.1875 -4.109375 C 8.695312 -4.273438 7.796875 -4.425781 6.484375 -4.5625 C 5.359375 -4.6875 4.476562 -4.847656 3.84375 -5.046875 C 3.207031 -5.253906 2.738281 -5.460938 2.4375 -5.671875 C 2.039062 -5.960938 1.757812 -6.285156 1.59375 -6.640625 C 1.425781 -7.003906 1.34375 -7.390625 1.34375 -7.796875 C 1.34375 -8.203125 1.445312 -8.632812 1.65625 -9.09375 C 1.863281 -9.5625 2.191406 -9.988281 2.640625 -10.375 C 3.097656 -10.757812 3.695312 -11.078125 4.4375 -11.328125 C 5.1875 -11.578125 6.097656 -11.703125 7.171875 -11.703125 Z M 7.171875 -11.703125 "/></g></g></g></g><g clip-path="url(#2cdb17a758)"><path stroke-linecap="butt" transform="matrix(0.743494, 0, 0, 0.743494, 1.248393, 23.672433)" fill="none" stroke-linejoin="miter" d="M 0.00216121 1.501868 L 128.108307 1.501868 " stroke="#ffffff" stroke-width="3" stroke-opacity="1" stroke-miterlimit="4"/></g><g clip-path="url(#67116ddccb)"><path stroke-linecap="butt" transform="matrix(0.743494, 0, 0, 0.743494, 42.850661, 23.672433)" fill="none" stroke-linejoin="miter" d="M 0.00121281 1.501868 L 122.52245 1.501868 " stroke="#00aeef" stroke-width="3" stroke-opacity="1" stroke-miterlimit="4"/></g></svg>